<?xml version="1.0" encoding="utf-8"?>
<svg version="1.1" xmlns="http://www.w3.org/2000/svg" viewBox="0 0 512 512">
	<style>
		.cls-1{fill:#999;}
	</style>
	<g id="longbows">
		<path d="M460.416,115.627c6.716,0,12.781-4.017,15.403-10.2l34.81-82.127c5.852-13.803-8.109-27.787-21.931-21.93l-82.127,34.81c-6.183,2.621-10.2,8.686-10.2,15.403V91.97l-26.503,26.503C326.089,79.752,264.077,48.539,200.53,33.696C121.989,15.355,53.283,24.312,7.045,58.912c-8.256,6.085-9.071,18.119-1.9,25.29L204.642,283.7l-50.482,50.482l-61.166-20.388c-6.009-2.002-12.638-0.439-17.119,4.042L4.901,388.81c-8.775,8.774-5.257,23.766,6.539,27.699l63.038,21.012l21.012,63.038c3.91,11.728,18.874,15.364,27.699,6.539l70.974-70.974c4.481-4.481,6.045-11.108,4.042-17.119l-20.389-61.167l50.481-50.481l199.499,199.499c7.152,7.16,19.103,6.354,25.214-1.793c34.666-46.24,43.65-114.992,25.293-193.591c-14.842-63.548-46.055-125.56-84.776-169.343l26.503-26.503H460.416z M429.832,62.66l33.861-14.352l-14.352,33.861h-19.509V62.66z M83.186,405.155l-35.487-11.828l44.524-44.523l35.486,11.828C124.748,363.593,91.228,397.113,83.186,405.155z M118.673,464.301l-11.828-35.486l44.524-44.524l11.828,35.486L118.673,464.301z M192.92,66.277c57.653,13.464,113.659,41.363,153.253,75.893l-23.602,23.602c-35.833-31.927-87.854-64.139-139.906-86.238c-16.544-7.023-39.118-15.504-63.827-21.668C141.679,57.35,166.573,60.124,192.92,66.277z M51.307,83.049c31.669-1.322,72.996,8.058,118.284,27.283c48.273,20.493,96.235,49.989,129.29,79.13l-70.58,70.58L51.307,83.049z M428.952,460.694L251.958,283.7l70.581-70.58c29.143,33.056,58.638,81.017,79.13,129.291C420.894,387.697,430.272,429.026,428.952,460.694z M445.724,319.081c6.154,26.349,8.93,51.245,8.412,74.085c-6.164-24.709-14.647-47.285-21.67-63.83c-22.097-52.052-54.309-104.074-86.237-139.9l23.602-23.602C404.361,205.421,432.258,261.428,445.724,319.08z"/>
	</g>
</svg>